<svg xmlns="http://www.w3.org/2000/svg" xmlns:xlink="http://www.w3.org/1999/xlink" width="1929" zoomAndPan="magnify" viewBox="0 0 1446.75 91.5" height="122" preserveAspectRatio="xMidYMid meet" version="1.0"><defs><clipPath id="276e859480"><path d="M 3.808594 0 L 1442.695312 0 L 1442.695312 91.003906 L 3.808594 91.003906 Z M 3.808594 0 " clip-rule="nonzero"/></clipPath><clipPath id="75ae2c7195"><path d="M 3.808594 0 L 1442.695312 0 L 1442.695312 91 L 3.808594 91 Z M 3.808594 0 " clip-rule="nonzero"/></clipPath></defs><g clip-path="url(#276e859480)"><path fill="#ffffff" d="M 3.808594 0 L 1442.695312 0 L 1442.695312 91.003906 L 3.808594 91.003906 Z M 3.808594 0 " fill-opacity="1" fill-rule="nonzero"/><path fill="#ffffff" d="M 3.808594 0 L 1442.695312 0 L 1442.695312 91.003906 L 3.808594 91.003906 Z M 3.808594 0 " fill-opacity="1" fill-rule="nonzero"/></g><g clip-path="url(#75ae2c7195)"><path fill="#ead7c7" d="M 653.507812 0 L 3.808594 0 L 3.808594 90.628906 L 1442.320312 90.628906 L 1442.320312 0 L 790.011719 0 C 726.234375 9.324219 723.625 72.355469 723.625 72.355469 C 718.402344 2.609375 653.507812 0 653.507812 0 Z M 653.507812 0 " fill-opacity="1" fill-rule="nonzero"/></g></svg>